<?xml version="1.0" encoding="UTF-8"?>
<svg id="Layer_2" data-name="Layer 2" xmlns="http://www.w3.org/2000/svg" viewBox="0 0 311.59 346.84">
  <defs>
    <style>
      .cls-1 {
        fill: #fff;
      }
    </style>
  </defs>
  <g id="Layer_1-2" data-name="Layer 1">
    <path class="cls-1" d="M158.67,346.84h-8c-5.22-2.79-11.21-3.43-16.43-6.48-37.62-21.98-75.4-43.7-113.05-65.62C7.02,266.48,.2,253.65,.13,237.49-.06,194.71-.02,151.93,.11,109.15c.05-16.6,7.22-29.63,21.6-38.04C59.04,49.29,96.44,27.6,133.96,6.11c14.24-8.15,29.05-8.13,43.28,.01,37.82,21.63,75.48,43.55,113.18,65.38,10,5.79,16.29,14.44,19.47,25.5,.48,1.65-.09,3.74,1.7,4.96V244.89c-.35,.51-.89,.98-1.02,1.55-3.16,14.53-12.05,24.35-24.88,31.33-12.41,6.76-24.31,14.48-36.82,21.02-30.2,15.78-57.3,37.37-90.2,48.05Zm-42.55-84.51c1.56,1.82,3.44,2.11,5.1,2.73,16.27,6.08,32.99,7.46,50.13,4.85,53.77-8.19,91.44-61.86,80.84-115.24-9.54-48.05-50.53-81.03-99.36-79.93-47.58,1.06-87.61,36.66-94.96,84.22-1.02,6.58-.66,11.86,6.04,15.45,3.61,1.93,6.53,5.12,9.82,7.67,5.79,4.5,11.71,8.82,18.54,11.67,13.62,5.68,26.35,1.77,34.37-10.56,3.64-5.61,6.18-11.79,8.94-17.84,4.72-10.35,9.96-20.37,18.57-28.13,1.71-1.54,1.58-2.97,.77-4.86-1.44-3.38-2.47-6.91-2.63-10.61-.16-3.63,.21-7.17,4.02-8.92,3.61-1.66,5.91,1.03,8.32,3,.89,.73,1.77,1.59,2.35,2.57,1.67,2.82,4.13,3.31,7.2,3.3,3.77-.02,8.06-1.42,11.23,.99,4.56,3.46,9.5,3.43,14.67,3.38,7.33-.08,14.66-.02,21.98-.02,9.73,0,17.3,5.88,19.86,15.41,1.49,5.58,.13,8.33-5.49,9.54-8.78,1.88-17.62,3.55-26.49,4.95-13.91,2.2-24.12,8.81-29.06,22.58-1.74,4.84-4.2,9.42-6.31,14.13-4.83,10.79-9.56,21.64-15.86,31.68-10.44,16.62-22.75,31.25-42.59,38.02Z"/>
  </g>
</svg>